<?xml version="1.0" standalone="no"?>
<!DOCTYPE svg >
<svg version="1.0" xmlns="http://www.w3.org/2000/svg"
 width="400.000000pt" height="300.000000pt" viewBox="0 0 400.000000 300.000000"
 preserveAspectRatio="xMidYMid meet">

<g transform="translate(0.000000,300.000000) scale(0.100000,-0.100000)"
fill="#000000" stroke="none">
<path d="M1453 2414 c-33 -33 -27 -63 27 -140 25 -36 37 -61 31 -67 -6 -6 -4
-19 6 -34 16 -25 16 -26 -40 -74 -115 -101 -211 -262 -242 -407 -10 -42 -19
-83 -21 -89 -2 -7 -17 -13 -34 -13 -16 0 -30 -5 -30 -11 0 -9 -24 -10 -83 -5
-73 6 -87 4 -107 -12 -16 -13 -23 -29 -23 -52 0 -23 7 -39 23 -52 20 -16 34
-18 107 -12 59 5 83 4 83 -5 0 -6 14 -11 30 -11 17 0 32 -6 34 -12 2 -7 11
-48 21 -90 31 -145 127 -306 242 -407 56 -48 56 -49 40 -74 -10 -15 -12 -28
-6 -34 6 -6 -5 -30 -31 -66 -49 -71 -57 -100 -36 -131 20 -31 46 -39 80 -26
20 7 35 28 56 76 19 42 37 68 50 71 11 3 20 8 20 12 0 3 7 14 14 24 13 17 18
16 92 -10 74 -26 90 -28 239 -28 149 0 165 2 240 28 75 27 80 27 92 11 7 -10
13 -21 13 -25 0 -4 9 -9 20 -12 13 -3 31 -29 50 -71 21 -48 36 -69 56 -76 34
-13 60 -5 80 26 21 31 13 60 -36 131 -26 36 -37 60 -31 66 6 6 4 18 -6 33 -14
22 -12 26 64 101 44 43 97 105 118 138 47 71 102 212 113 287 7 51 9 53 40 56
17 2 32 8 32 14 0 7 26 9 83 4 73 -6 87 -4 107 12 32 26 32 78 0 104 -20 16
-34 18 -107 12 -57 -5 -83 -3 -83 4 0 6 -15 12 -32 14 -31 3 -33 5 -40 56 -11
75 -66 216 -113 287 -21 33 -74 95 -118 138 -76 75 -78 79 -64 101 10 15 12
27 6 33 -6 6 5 30 31 66 49 71 57 100 36 131 -20 31 -46 39 -80 26 -20 -7 -35
-28 -56 -76 -19 -42 -37 -68 -50 -71 -11 -3 -20 -8 -20 -12 0 -3 -7 -14 -14
-24 -13 -17 -18 -16 -92 10 -74 26 -89 28 -239 28 -148 -1 -166 -3 -239 -28
-74 -26 -79 -27 -92 -10 -7 10 -14 21 -14 24 0 4 -9 9 -20 12 -13 3 -31 29
-50 71 -21 48 -37 69 -55 76 -37 14 -43 13 -72 -16z m681 -339 c32 -8 67 -20
79 -27 21 -11 21 -11 -9 -37 -16 -14 -61 -81 -100 -149 l-69 -123 -40 3 c-40
3 -40 3 -110 125 -39 67 -83 131 -98 144 -36 27 -27 36 55 59 79 23 214 25
292 5z m-465 -148 c1 -10 33 -73 72 -140 l70 -121 -17 -38 -17 -38 -148 0
c-81 0 -160 -5 -175 -10 -15 -6 -29 -8 -32 -5 -12 12 19 123 55 195 25 52 58
96 106 145 62 63 70 68 77 50 5 -11 9 -28 9 -38z m755 -27 c75 -81 125 -181
145 -288 8 -42 8 -43 -13 -36 -11 4 -93 9 -182 11 l-161 4 -17 36 -17 35 52
91 c29 51 60 104 70 118 10 14 21 45 25 67 8 52 18 48 98 -38z m-808 -468
l162 -3 16 -38 17 -37 -69 -120 c-38 -65 -72 -136 -76 -157 -6 -32 -9 -36 -25
-27 -30 15 -120 119 -152 174 -32 56 -69 164 -69 203 0 20 3 24 18 17 9 -5 90
-10 178 -12z m953 -24 c-22 -116 -75 -215 -162 -302 l-70 -71 -10 45 c-5 25
-17 56 -26 70 -10 14 -41 66 -70 117 l-52 91 18 36 17 36 150 1 c83 0 160 4
171 9 38 17 43 12 34 -32z m-465 -251 c39 -67 84 -134 100 -148 30 -26 30 -26
9 -37 -100 -54 -337 -54 -437 0 -19 10 -19 12 10 37 17 14 59 76 94 136 79
139 76 135 119 135 36 0 37 -1 105 -123z"/>
</g>
</svg>
