<?xml version="1.0" standalone="no"?>
<!DOCTYPE svg >
<svg version="1.0" xmlns="http://www.w3.org/2000/svg"
 width="400.000000pt" height="300.000000pt" viewBox="0 0 400.000000 300.000000"
 preserveAspectRatio="xMidYMid meet">

<g transform="translate(0.000000,300.000000) scale(0.100000,-0.100000)"
fill="#000000" stroke="none">
<path d="M1912 2445 c-171 -48 -263 -221 -205 -391 12 -35 34 -66 80 -111 36
-36 63 -71 63 -83 0 -19 -6 -20 -165 -20 l-165 0 0 -105 0 -105 165 0 165 0 0
-345 c0 -285 -2 -345 -14 -345 -30 0 -160 75 -209 120 l-52 49 48 1 47 0 0
120 0 120 -236 0 -236 0 6 -27 c14 -54 79 -208 113 -265 49 -83 154 -192 241
-249 74 -49 197 -102 265 -114 33 -6 48 -19 99 -84 34 -42 64 -76 68 -76 4 0
34 34 67 75 58 73 61 75 129 93 190 48 380 190 477 355 34 57 99 211 113 265
l6 27 -236 0 -236 0 0 -120 0 -120 48 0 47 -1 -55 -51 c-50 -46 -176 -118
-207 -118 -11 0 -13 68 -11 343 l3 342 163 3 162 2 0 105 0 105 -162 2 c-197
4 -200 6 -105 100 74 73 97 126 97 223 0 190 -192 331 -378 280z m193 -39 c93
-43 165 -153 165 -250 0 -47 -11 -57 -38 -36 -15 12 -22 29 -22 52 -1 124
-139 225 -269 197 -59 -12 -131 -71 -151 -121 -18 -43 -17 -43 -35 -28 -27 23
-18 64 27 115 82 93 214 122 323 71z m-40 -174 c86 -85 -11 -221 -121 -169
-90 43 -76 169 22 196 40 10 70 3 99 -27z m-205 -93 c0 -23 10 -42 39 -70 34
-34 44 -39 86 -39 55 0 95 21 119 61 13 22 25 29 47 29 33 0 35 -9 15 -49 -30
-58 -115 -111 -176 -111 -37 0 -93 24 -126 52 -40 36 -59 68 -68 121 l-7 37
36 0 c33 0 35 -2 35 -31z m377 -65 c11 -18 9 -26 -17 -67 -16 -25 -47 -58 -69
-73 -36 -23 -41 -31 -41 -64 0 -37 -10 -48 -97 -103 -10 -6 -13 12 -13 83 0
79 2 90 18 90 9 0 40 11 68 24 51 24 95 70 109 114 8 26 22 25 42 -4z m-343
-286 l51 -33 -168 -3 -168 -2 -23 27 c-13 15 -22 31 -19 35 2 5 65 8 140 8
l136 0 51 -32z m526 27 c0 -3 -10 -19 -22 -35 l-22 -30 -170 0 -171 0 49 35
50 35 143 0 c79 0 143 -2 143 -5z m-352 -148 l42 -30 0 -357 0 -357 -49 -41
c-27 -23 -52 -42 -55 -42 -3 0 -6 196 -6 436 0 345 3 434 13 428 6 -4 31 -21
55 -37z m-478 -387 l-32 -40 -89 0 c-86 0 -91 1 -144 36 -30 20 -55 38 -55 40
0 2 79 4 176 4 l176 0 -32 -40z m1120 36 c0 -2 -25 -20 -55 -40 -53 -35 -58
-36 -144 -36 l-89 0 -32 40 -32 40 176 0 c97 0 176 -2 176 -4z m-1382 -70 c23
-15 44 -46 73 -105 31 -63 59 -102 118 -162 96 -98 198 -150 341 -177 l94 -17
-45 -38 -46 -37 -59 15 c-191 49 -376 189 -472 356 -25 44 -92 202 -92 217 0
3 12 -4 28 -14 15 -9 42 -27 60 -38z m1381 -32 c-39 -100 -79 -171 -139 -244
-99 -118 -269 -218 -431 -254 -20 -4 -36 3 -69 32 l-44 37 95 17 c203 37 368
159 456 337 37 73 49 88 99 122 32 21 59 37 61 35 1 -1 -11 -38 -28 -82z"/>
</g>
</svg>
